<svg xmlns="http://www.w3.org/2000/svg" viewBox="0 0 74.5 64.42"><defs><style>.cls-1{fill:none;stroke:#0096ff;stroke-linecap:round;stroke-linejoin:round;stroke-width:1.5px;}</style></defs><title>productos para tu vehículoiconos</title><g id="Capa_2" data-name="Capa 2"><g id="Capa_2-2" data-name="Capa 2"><line class="cls-1" x1="24.08" y1="45.38" x2="32.8" y2="45.38"/><line class="cls-1" x1="15.35" y1="45.38" x2="24.08" y2="45.38"/><line class="cls-1" x1="10.24" y1="45.38" x2="15.35" y2="45.38"/><line class="cls-1" x1="0.92" y1="45.38" x2="10.24" y2="45.38"/><circle class="cls-1" cx="44.72" cy="53.6" r="5.87"/><circle class="cls-1" cx="44.72" cy="53.6" r="10.07"/><line class="cls-1" x1="23.75" y1="53.94" x2="34.48" y2="53.94"/><line class="cls-1" x1="12.75" y1="53.94" x2="17.75" y2="53.94"/><line class="cls-1" x1="0.75" y1="53.94" x2="7.75" y2="53.94"/><line class="cls-1" x1="35.64" y1="49.24" x2="0.75" y2="49.24"/><path class="cls-1" d="M54.75,54.44H64.1a2.77,2.77,0,0,0,2.77-2.76h0a2.77,2.77,0,0,0-2.77-2.77H53.63"/><path class="cls-1" d="M73.75,6.65l-20.5,8.49a1.43,1.43,0,0,1-1.82-.68l-.17-.35a1.42,1.42,0,0,1,.29-1.67L63.82.75"/><line class="cls-1" x1="49" y1="22.41" x2="49.87" y2="23.9"/><path class="cls-1" d="M52.13,23.5a2.11,2.11,0,0,1,.2,1.59,3.55,3.55,0,0,1-6.82,0,2.14,2.14,0,0,1,.16-1.55l3.14-6.08Z"/><path class="cls-1" d="M.92,15.51h1.5A13.37,13.37,0,0,1,13,20.69l8,10.26"/><path class="cls-1" d="M.75,31H28.39a38,38,0,0,1,4.77.3l18.18,2.3a11,11,0,0,1,8.55,6.18L64,48.4"/><path class="cls-1" d="M23.85,31l2.4-3.85A38.6,38.6,0,0,1,29,23.21L40.6,9"/></g></g></svg>