<svg xmlns="http://www.w3.org/2000/svg" viewBox="0 0 62.21 44.78"><defs><style>.cls-1{fill:none;stroke:#0096ff;stroke-linecap:round;stroke-linejoin:round;stroke-width:1.5px;}</style></defs><title>Agua y nitrógenoiconos</title><g id="Capa_2" data-name="Capa 2"><g id="Capa_2-2" data-name="Capa 2"><path class="cls-1" d="M15.69,21.76l3,5.64a12.07,12.07,0,0,1,1.46,5.69,8.84,8.84,0,0,1-.27,2.41"/><path class="cls-1" d="M22.31,24.27c.63,1.38,1.23,2.78,1.78,4.19C27,35.87,20.49,44.05,12.75,44,6.37,44,0,38,.82,31.4a20.79,20.79,0,0,1,2.7-7.15C5,21.54,11.32,9.06,13.09,5.56c0,0,.08-.11.07-.13S20.29,19.83,22.31,24.27Z"/><path class="cls-1" d="M59.54,9.42a8.68,8.68,0,0,1-8.68,8.68H28.62"/><path class="cls-1" d="M56.5,2.83a8.61,8.61,0,0,1,2,2.56"/><path class="cls-1" d="M43.3,5.17a8.69,8.69,0,0,1,10.11-4"/><path class="cls-1" d="M50.81,33.36a5.54,5.54,0,1,0,5.11-7.7H29.75"/><path class="cls-1" d="M36.11,40.71a5,5,0,1,0,4.62-7H34.2"/></g></g></svg>