<svg xmlns="http://www.w3.org/2000/svg" viewBox="0 0 85.5 39.53"><defs><style>.cls-1,.cls-2{fill:none;stroke:#0096ff;stroke-miterlimit:10;stroke-width:1.5px;}.cls-2{stroke-linecap:round;}</style></defs><title>Para tu auto o parque vehiculariconos</title><g id="Capa_2" data-name="Capa 2"><g id="Capa_2-2" data-name="Capa 2"><circle class="cls-1" cx="16.17" cy="32.61" r="6.17"/><circle class="cls-1" cx="55.39" cy="32.61" r="6.17"/><line class="cls-2" x1="4.86" y1="12.03" x2="4.86" y2="19.53"/><path class="cls-2" d="M4.62,25.42A3.86,3.86,0,0,0,.75,29.28V30.9a4.79,4.79,0,0,0,4.79,4.79h5.29a6.08,6.08,0,0,1-.74-4.13,6.16,6.16,0,0,1,12.24,1.05,6,6,0,0,1-.83,3.08H50.05a6.17,6.17,0,1,1,11.51-3.08,6,6,0,0,1-.84,3.08h0a8,8,0,0,0,8-8l-.69-5a7.2,7.2,0,0,0-7-5.45h-2l-1.24-3A21.71,21.71,0,0,0,37.76.75H10.86a6,6,0,0,0-6,6"/><polyline class="cls-2" points="33.75 0.75 37.75 17.28 58.75 17.28"/><line class="cls-2" x1="37.75" y1="21.28" x2="42.75" y2="21.28"/><path class="cls-2" d="M71.31,35.35a8,8,0,0,0,5.44-7.6l-.69-5a7.19,7.19,0,0,0-7-5.45h-2l-1.24-3A21.73,21.73,0,0,0,51.39,1.57"/><path class="cls-2" d="M79.75,35.19a8,8,0,0,0,5-7.44l-.69-5a7.19,7.19,0,0,0-7-5.45h-2l-1.24-3a21.72,21.72,0,0,0-15-12.84"/></g></g></svg>