<svg xmlns="http://www.w3.org/2000/svg" viewBox="0 0 43.3 53.2"><defs><style>.cls-1,.cls-3{fill:none;stroke:#0096ff;stroke-miterlimit:10;stroke-width:1.5px;}.cls-1{stroke-linecap:round;}.cls-2{fill:#0096ff;}</style></defs><title>Seguridad de A a Ziconos</title><g id="Capa_2" data-name="Capa 2"><g id="Capa_2-2" data-name="Capa 2"><path class="cls-1" d="M42.55,25.11a5.51,5.51,0,0,0-4.49-5.4L26.92,17.62a21.18,21.18,0,0,0-4-.37h-2.6a21.18,21.18,0,0,0-4,.37L5.24,19.71a5.51,5.51,0,0,0-4.49,5.4V47a5.5,5.5,0,0,0,5.5,5.5h30.8a5.5,5.5,0,0,0,5.5-5.5"/><line class="cls-1" x1="42.55" y1="39.1" x2="42.55" y2="32.43"/><path class="cls-2" d="M21.65,26.05A5.49,5.49,0,0,1,25,35.93v4.42a2.19,2.19,0,0,1-2.2,2.2h-2.2a2.19,2.19,0,0,1-2.2-2.2V35.93a5.49,5.49,0,0,1,2.12-9.76,6.06,6.06,0,0,1,1.18-.12m0-1.5a7.43,7.43,0,0,0-1.48.15,7,7,0,0,0-3.32,11.92v3.73a3.7,3.7,0,0,0,3.7,3.7h2.2a3.7,3.7,0,0,0,3.7-3.7V36.62a6.9,6.9,0,0,0,2.2-5.07,7,7,0,0,0-7-7Z"/><path class="cls-3" d="M34.63,19.07V12.16a5.37,5.37,0,0,0-.12-1.2A13.21,13.21,0,0,0,9.06,10a5.11,5.11,0,0,0-.21,1.56V19"/><path class="cls-3" d="M14.27,18V12.8a5.21,5.21,0,0,1,.51-2.33,7.71,7.71,0,0,1,13.76,0A5.25,5.25,0,0,1,29,12.81v5.25"/></g></g></svg>