<svg xmlns="http://www.w3.org/2000/svg" viewBox="0 0 52.5 62.99"><defs><style>.cls-1,.cls-2,.cls-3{fill:none;stroke-width:1.5px;}.cls-1,.cls-2,.cls-3,.cls-4{stroke:#0096ff;}.cls-1,.cls-2{stroke-linecap:round;}.cls-1{stroke-linejoin:round;}.cls-2,.cls-3,.cls-4{stroke-miterlimit:10;}.cls-4{font-size:15px;fill:#0096ff;stroke-width:0.5px;font-family:QuicksandBook-Regular, Quicksand;}</style></defs><title>Facturación electrónicaiconos</title><g id="Capa_2" data-name="Capa 2"><g id="Capa_2-2" data-name="Capa 2"><path class="cls-1" d="M51.75,24.22V4A3.24,3.24,0,0,0,48.51.75H4A3.24,3.24,0,0,0,.75,4V59A3.24,3.24,0,0,0,4,62.24H48.51A3.24,3.24,0,0,0,51.75,59V48.91"/><line class="cls-2" x1="51.75" y1="41.94" x2="51.75" y2="32.34"/><rect class="cls-3" x="7.27" y="9.44" width="37.95" height="10" rx="1.62" ry="1.62"/><line class="cls-3" x1="33.77" y1="9.44" x2="33.77" y2="19.52"/><line class="cls-2" x1="8.49" y1="37.94" x2="26.79" y2="37.94"/><line class="cls-2" x1="8.58" y1="42.89" x2="26.88" y2="42.89"/><line class="cls-2" x1="8.58" y1="47.94" x2="19.42" y2="47.94"/><text class="cls-4" transform="translate(34.81 53.62)">$</text><line class="cls-2" x1="8.49" y1="32.94" x2="26.79" y2="32.94"/><line class="cls-2" x1="10.49" y1="13.94" x2="28.79" y2="13.94"/></g></g></svg>