<svg xmlns="http://www.w3.org/2000/svg" viewBox="0 0 55.5 54.01"><defs><style>.cls-1,.cls-2{fill:none;stroke:#0096ff;stroke-linejoin:round;stroke-width:1.5px;}.cls-1{stroke-linecap:round;}.cls-3{fill:#0096ff;}</style></defs><title>calibración de neumáticosiconos</title><g id="Capa_2" data-name="Capa 2"><g id="Capa_2-2" data-name="Capa 2"><path class="cls-1" d="M21.5,1.54A25.06,25.06,0,0,1,27.63.75,27,27,0,0,1,43.51,49.67a16.59,16.59,0,0,1-4.74,2.55,20,20,0,0,1-5.65.91c-1.77,0-5.07.12-5.07.12s-5.46.06-8-.25a17.92,17.92,0,0,1-3.55-.81,17.54,17.54,0,0,1-2.29-.95,22.07,22.07,0,0,1-4.83-3.72A27,27,0,0,1,.78,26.43a26.1,26.1,0,0,1,4.5-13.31"/><path class="cls-1" d="M9.2,8.46a28.48,28.48,0,0,1,6.59-4.73"/><path class="cls-1" d="M43.91,44a23.13,23.13,0,0,1-3.85,3.19"/><path class="cls-1" d="M44,12.75a22.55,22.55,0,0,1,3.13,27"/><path class="cls-1" d="M7.54,38.4A22.6,22.6,0,0,1,8.19,17"/><circle class="cls-2" cx="27.75" cy="27.75" r="16.93"/><circle class="cls-2" cx="27.75" cy="27.75" r="13.46"/><circle class="cls-2" cx="27.75" cy="27.75" r="5.4"/><path class="cls-1" d="M30.69,28.29a3.88,3.88,0,0,1-2.56,2.46"/><circle class="cls-3" cx="19.23" cy="25.11" r="1.68"/><circle class="cls-3" cx="27.63" cy="18.39" r="1.68"/><circle class="cls-3" cx="22.59" cy="35.19" r="1.68"/><circle class="cls-3" cx="33.51" cy="35.19" r="1.68"/><circle class="cls-3" cx="36.87" cy="24.27" r="1.68"/></g></g></svg>