<svg xmlns="http://www.w3.org/2000/svg" viewBox="0 0 672.72 439.73"><defs><style>.cls-1{fill:#ff8d1c;}.cls-2{fill:#0f304d;}.cls-3{fill:#fff;}</style></defs><title>Isologo +Gas</title><g id="Capa_2" data-name="Capa 2"><g id="Capa_6" data-name="Capa 6"><path class="cls-1" d="M582.86,428.23h-428c-12.43,0-21.5-10.07-21.5-22.5,0-17.5,12.82-23.38,13.72-23.78-1-.38-2-.76-3-1.17a107.23,107.23,0,0,1-44.18-32.34c-11.27-14-18.88-31.1-22.6-50.7-3.46-18.17-3.23-38.66.68-60.9A186.6,186.6,0,0,1,96.31,182c-11,5.28-19,7.28-34.64,6.6-10.29-.45-19.83-4.62-26.15-12.66A33.23,33.23,0,0,1,29.4,147.3L32,136.48a43,43,0,0,1-22-14.8A43.74,43.74,0,0,1,2,84.05,44.31,44.31,0,0,0,.15,100.76,43.45,43.45,0,0,0,4.77,117.3a45.44,45.44,0,0,0,10.79,13.8,45.4,45.4,0,0,0,12.14,7.52l-1,3.44c-.61,2.18-1.26,4.17-1.84,6.72A37.55,37.55,0,0,0,30.54,178a36.8,36.8,0,0,0,11.25,10.79,41.76,41.76,0,0,0,14.51,5.48,59.13,59.13,0,0,0,7.43.82c2.34.14,4.7.23,7.12.21a67,67,0,0,0,10.92-.87q-2.55,5.86-4.69,11.88a203.41,203.41,0,0,0-8,29.41c-3.84,19.86-5.37,40.64-2.12,61.45a133.41,133.41,0,0,0,8.4,30.45,117.42,117.42,0,0,0,16.14,27.73,112.87,112.87,0,0,0,23.36,22.21,122.58,122.58,0,0,0,12.55,7.81,35.49,35.49,0,0,0-1.86,3.5A37.55,37.55,0,0,0,122.34,400l-.19,1.4c0,.46-.06.92-.09,1.38l-.12,2.76c0,1,.06,2,.11,3s.23,2,.36,3a33.89,33.89,0,0,0,12.13,21.12,32.3,32.3,0,0,0,11.31,5.82,32.67,32.67,0,0,0,6.22,1.13l1.56.08.77,0,.39,0h2.34l33-.08,16.48,0,16.48-.11,33-.24,33-.37c22-.21,44-.64,65.93-1q65.93-1.27,131.85-3.49,33-1.11,65.93-2.62l16.48-.81,8.24-.41c2.76-.17,5.41-.15,8.47-.61a24.45,24.45,0,0,0,14.81-8.7,25.78,25.78,0,0,0,4.2-7.35,24.81,24.81,0,0,0,1.47-8.18C605.5,418.13,595.29,428.23,582.86,428.23Z"/><path class="cls-2" d="M670.49,198.62a31,31,0,0,0-17-40.19l-2.59-1.06c-7.24-3-16.21-5.51-27.45-7.75a181.14,181.14,0,0,0-35.37-3.35H588c-27.41,0-51,6.7-70.15,19.86a91.67,91.67,0,0,0-29.64,33.07l-.72-.81,1.33-8.56a38.64,38.64,0,0,0-8.58-31.16,36,36,0,0,0-27.36-12.6H357.08a36.3,36.3,0,0,0-9.68,1.32,31,31,0,0,0-12.87-30.21l-2.11-1.48a106.89,106.89,0,0,0-11.11-6.56,115.89,115.89,0,0,0-19.69-8,194.57,194.57,0,0,0-25.27-5.84A202.25,202.25,0,0,0,243,92.81h-.1a167.17,167.17,0,0,0-56,9.65c-4.27,1.51-8.46,3.21-12.56,5.07a48.25,48.25,0,0,0,1.89-6A42.49,42.49,0,0,0,168.48,65a41.78,41.78,0,0,0-22.41-14.67l2.22-9.09a33.22,33.22,0,0,0-6.12-28.58C135.85,4.62,119.43.16,111,0c-9.69-.19-27.68,4.07-37,11.48a53.39,53.39,0,0,0-18.62,29L53.34,49H46.47a45.67,45.67,0,0,0-28.31,10A46.21,46.21,0,0,0,2,84.05a43.74,43.74,0,0,0,8,37.63,43,43,0,0,0,22,14.8L29.4,147.3a33.23,33.23,0,0,0,6.12,28.59c6.31,8,15.86,12.21,26.15,12.66,15.69.68,23.69-1.32,34.64-6.6A186.31,186.31,0,0,0,78,236.84c-3.91,22.24-4.14,42.73-.68,60.9,3.72,19.6,11.33,36.67,22.6,50.7a107.23,107.23,0,0,0,44.18,32.34c1,.41,2,.79,3,1.17-.9.4-13.72,6.28-13.72,23.78,0,12.43,9.07,22.5,21.5,22.5h428c12.43,0,22.64-10.1,23.5-22.5,1-14.5-7-20.5-14.28-22.26,8.06-2.71,17.54-6.13,24.36-10.29,22.54-13.74,36.9-34.95,41.54-61.33a96.59,96.59,0,0,0,1.11-28.58,64.18,64.18,0,0,0-11.94-30.13l-.65-.88a30.88,30.88,0,0,0,6.6-10.15Z"/><path class="cls-3" d="M247,232.66l-13.55,77.07c-2.2.33-4.6.56-7.18.7-3.86.21-8.57.32-14,.32h0c-9.6,0-17.78-1.65-24.33-4.91a37.45,37.45,0,0,1-15.36-13.77,51,51,0,0,1-7-21.49,100.2,100.2,0,0,1,1.32-28.4c3.75-21.31,11.65-38.26,23.49-50.38,11.62-11.89,28.59-17.92,50.45-17.93h.07a89.65,89.65,0,0,1,27,3.8,105,105,0,0,1,21.11,9.1l3.18,1.86,24.67-46-2.1-1.47a83.21,83.21,0,0,0-7.92-4.62,88,88,0,0,0-14.43-5.75,163.58,163.58,0,0,0-21.15-4.84,171.35,171.35,0,0,0-28.18-2.1h-.1a136.26,136.26,0,0,0-45.61,7.87,129.61,129.61,0,0,0-40.35,23.16,140.27,140.27,0,0,0-30.8,37.2c-8.4,14.53-14.34,31.41-17.64,50.17-3.25,18.53-3.51,35.27-.75,49.74S116,319,124.05,329a76.65,76.65,0,0,0,31.63,23c12.83,5.19,27.86,7.82,44.68,7.82h.08c19.38,0,36.18-1.38,49.95-4.06,13.93-2.72,23.9-5.22,30.49-7.65l2.34-.86,20.16-114.65Z"/><path class="cls-3" d="M628.33,287.12a33.46,33.46,0,0,0-6.24-15.72c-3.35-4.59-8.28-8.9-14.67-12.79a162.52,162.52,0,0,0-24.12-11.56A118.07,118.07,0,0,1,572,241.91a39.73,39.73,0,0,1-6.54-4.16,5.93,5.93,0,0,1-2.15-2.85,8.83,8.83,0,0,1,0-3.71,8.16,8.16,0,0,1,4.88-6.27c3.48-1.77,8.68-2.67,15.46-2.67h.07a89.46,89.46,0,0,1,20.52,2.12,148.29,148.29,0,0,1,16.71,5l3.42,1.26,17.4-43.49L639.12,186a124,124,0,0,0-21.74-6,150.83,150.83,0,0,0-29.3-2.74H588c-21,0-38.7,4.86-52.59,14.4-14.17,9.76-22.85,23.17-25.78,39.86-1.49,8.46-1.53,15.84-.11,21.93a37.2,37.2,0,0,0,7.82,15.92,49,49,0,0,0,14.3,11.25,179.8,179.8,0,0,0,18.93,8.69c8.68,3.51,15.08,6.67,19,9.38,4.77,3.28,4.27,6.13,4.1,7.06-.8,4.53-2.87,6-4.6,6.72-2.32,1-7.21,2.22-17.33,2.22h-.06a110.47,110.47,0,0,1-23.84-2.61A131,131,0,0,1,505,304.81l-3.55-1.5-17.26,45.14,2.33,1.13c3.69,1.78,10.19,3.91,19.87,6.52s22,3.9,37,3.9h.13c23.24,0,42.35-4.48,56.81-13.29,14.91-9.1,24.05-22.63,27.14-40.23A65.91,65.91,0,0,0,628.33,287.12Z"/><path class="cls-3" d="M476.08,232.28,459.91,214a2.06,2.06,0,0,0-1.56-.72h-4.53l4.37-28.19c.69-4.4-1.7-8-5.3-8H357.08c-3.59,0-7.09,3.61-7.78,8L323.6,350.84c-.69,4.41,1.7,8,5.29,8H424.7c3.6,0,7.1-3.59,7.79-8l8.22-53h2.14a2.74,2.74,0,0,1,3,2.59l-7,44c-.36,1.41-1.49,6.91,1.47,10.84,1.23,1.63,3.61,3.57,7.94,3.57,8.78,0,12.08-7.79,12.2-13.23L474,255.5l.1-.64c.14-.85.67-5-1.94-8.12-1.21-1.46-3.51-3.2-7.6-3.2h-.06a5.58,5.58,0,0,1,0-1.92l1.37-9.55h1.28l4.79,5.42a2,2,0,0,0,1.56.71,3.1,3.1,0,0,0,2.35-1.27A3.79,3.79,0,0,0,476.08,232.28Zm-38.75-27.71-6.57,42.34a9.1,9.1,0,0,1-1.59,3.91,7.82,7.82,0,0,1-.86,1,6.21,6.21,0,0,1-4.36,2.06H362.19a4.56,4.56,0,0,1-4.25-3.09,6.72,6.72,0,0,1-.44-1.83,8.79,8.79,0,0,1,0-1.36c0-.24,0-.48.08-.72l6.57-42.34c0-.24.08-.47.14-.71a9,9,0,0,1,.44-1.36,9.49,9.49,0,0,1,1-1.83,6.7,6.7,0,0,1,5.22-3.09h61.76a4.4,4.4,0,0,1,3.72,2,6,6,0,0,1,.54,1A7.45,7.45,0,0,1,437.33,204.57Zm27.23,47.11c.92,0,1.28.19,1.32.25a2.63,2.63,0,0,1,.2,1.51l-13.69,91.23,0,.58c0,1.28-.37,5.45-4.07,5.45a2.17,2.17,0,0,1-1.44-.33c-.48-.63-.43-2.67-.07-4l7.29-45.66,0-.42c-.21-4.28-3.37-10.65-11.19-10.65H442l9-58.05a10.61,10.61,0,0,0,3.18.48h.09l3.38,0-1.16,8.08c-.21,1.15-.8,5.56,1.79,8.72A7.79,7.79,0,0,0,464.56,251.68Z"/><path class="cls-1" d="M113.32,75H135.2C146,75,153.58,84.72,151,95.41h0a22.07,22.07,0,0,1-21.09,16.77H104.4l-7.32,29.7A27.29,27.29,0,0,1,71,162.55H61.67a7.19,7.19,0,0,1-7-9.09l10.07-41.28H44.28c-11.66,0-19.77-10.51-17-22h0A20,20,0,0,1,46.47,75h27.3l6.9-28.32a27.17,27.17,0,0,1,26-20.62H116a7.19,7.19,0,0,1,7,9.08Z"/><path class="cls-1" d="M150.23,415.87l5.65-23.64h15.45l-1.09,4.37H160.11L159,401.37H168l-1.06,4.3H158l-1.36,5.8h10.91l-1.09,4.4Z"/><path class="cls-1" d="M179.56,412.24a4.16,4.16,0,0,0,2.39-.5,1.37,1.37,0,0,0,.64-1.07,1.6,1.6,0,0,0-.12-.65,1.51,1.51,0,0,0-.39-.51,3.88,3.88,0,0,0-.75-.5c-.32-.17-.73-.37-1.23-.59s-1.1-.52-1.6-.8a5.58,5.58,0,0,1-1.31-1,4.27,4.27,0,0,1-.89-1.36,4.59,4.59,0,0,1-.33-1.82,5.27,5.27,0,0,1,2-4.37,9.38,9.38,0,0,1,5.92-1.61,12,12,0,0,1,3.27.41,11.41,11.41,0,0,1,2.32.89l-1.74,3.78a10,10,0,0,0-1.84-.71,7.53,7.53,0,0,0-2.22-.34,7.15,7.15,0,0,0-.93.05,2.94,2.94,0,0,0-.86.22,1.61,1.61,0,0,0-.63.48,1.29,1.29,0,0,0-.23.82,1.14,1.14,0,0,0,.52,1,16.9,16.9,0,0,0,1.49.82c.88.43,1.62.83,2.22,1.19a5.83,5.83,0,0,1,1.41,1.16,3.92,3.92,0,0,1,.77,1.4,6.27,6.27,0,0,1,.24,1.84,5.3,5.3,0,0,1-.46,2.15,5.16,5.16,0,0,1-1.45,1.88,8.09,8.09,0,0,1-2.52,1.33,11.72,11.72,0,0,1-3.68.51,16,16,0,0,1-2.41-.17,12.77,12.77,0,0,1-1.89-.42,11.22,11.22,0,0,1-1.38-.53q-.57-.27-.87-.45l1.73-3.89a15.31,15.31,0,0,0,1.81.86A7.75,7.75,0,0,0,179.56,412.24Z"/><path class="cls-1" d="M198.48,393.44l5.28-.83-1.29,5.29h5.66l-1,4.16h-5.63L200,408.34a8.51,8.51,0,0,0-.26,1.46,2.44,2.44,0,0,0,.17,1.18,1.6,1.6,0,0,0,.77.77,3.41,3.41,0,0,0,1.5.27,8.25,8.25,0,0,0,1.59-.15,13.32,13.32,0,0,0,1.55-.43l.38,3.89a20.82,20.82,0,0,1-2.22.65,13,13,0,0,1-2.83.27,7.73,7.73,0,0,1-3.65-.7,4,4,0,0,1-1.84-1.91,5.87,5.87,0,0,1-.48-2.77,17.58,17.58,0,0,1,.47-3.31Z"/><path class="cls-1" d="M227.34,408.09a11.15,11.15,0,0,0-.27,3.9,14.08,14.08,0,0,0,.78,3.5l-4.53.65c-.14-.28-.26-.54-.38-.79s-.22-.53-.34-.85a9.07,9.07,0,0,1-2.11,1.3,6.42,6.42,0,0,1-2.6.51,6.65,6.65,0,0,1-2.91-.59,5.52,5.52,0,0,1-2-1.61,6.47,6.47,0,0,1-1.11-2.35,11.6,11.6,0,0,1-.34-2.88,11.76,11.76,0,0,1,.83-4.44,11.44,11.44,0,0,1,2.32-3.63,10.88,10.88,0,0,1,3.49-2.44,10.74,10.74,0,0,1,4.37-.89c.2,0,.56,0,1.07,0s1.1.07,1.76.15a17.48,17.48,0,0,1,2.08.39,10.51,10.51,0,0,1,2.08.75Zm-3.55-6.28-.8-.1q-.36,0-.87,0a4.23,4.23,0,0,0-2.17.58,6,6,0,0,0-1.75,1.52,7,7,0,0,0-1.18,2.16,7.85,7.85,0,0,0-.42,2.56,5.25,5.25,0,0,0,.54,2.59,2.13,2.13,0,0,0,2,1,3.24,3.24,0,0,0,1.41-.31,5.38,5.38,0,0,0,1.35-1c0-.56.12-1.16.22-1.79s.21-1.2.32-1.72Z"/><path class="cls-1" d="M235,408.66a12.56,12.56,0,0,1,.75-4.36,10.84,10.84,0,0,1,2.15-3.59,10,10,0,0,1,3.39-2.42,10.85,10.85,0,0,1,4.45-.89,12.09,12.09,0,0,1,2.75.29,10.74,10.74,0,0,1,2.2.77l-1.74,4c-.46-.18-.93-.34-1.42-.49a6.16,6.16,0,0,0-1.79-.22,5,5,0,0,0-4,1.72,7,7,0,0,0-1.46,4.69,4.85,4.85,0,0,0,.75,2.82,3.16,3.16,0,0,0,2.76,1.07,9.49,9.49,0,0,0,3.55-.72l.37,4.06a18.38,18.38,0,0,1-2.09.67,11.69,11.69,0,0,1-2.78.29,9.42,9.42,0,0,1-3.58-.61,6.77,6.77,0,0,1-2.43-1.66,6.33,6.33,0,0,1-1.38-2.44A10.13,10.13,0,0,1,235,408.66Z"/><path class="cls-1" d="M258.82,415.81h-5L258,397.87h5.08Zm2.45-20.12a3.13,3.13,0,0,1-1.91-.63,2.24,2.24,0,0,1-.86-1.93,3.27,3.27,0,0,1,.29-1.35,3.71,3.71,0,0,1,.77-1.09,3.63,3.63,0,0,1,1.11-.73,3.38,3.38,0,0,1,1.34-.27,3.15,3.15,0,0,1,1.92.62,2.28,2.28,0,0,1,.85,1.93,3.24,3.24,0,0,1-.29,1.35,3.53,3.53,0,0,1-.77,1.09,3.8,3.8,0,0,1-1.1.74A3.46,3.46,0,0,1,261.27,395.69Z"/><path class="cls-1" d="M275,416.28a8.27,8.27,0,0,1-3.13-.54,5.86,5.86,0,0,1-2.2-1.54,6.67,6.67,0,0,1-1.32-2.33,9.72,9.72,0,0,1-.44-3,13.3,13.3,0,0,1,.66-4.09,11.54,11.54,0,0,1,2-3.68,10.27,10.27,0,0,1,3.17-2.68,8.75,8.75,0,0,1,4.3-1.05,8.35,8.35,0,0,1,3.12.55,5.62,5.62,0,0,1,2.21,1.53,6.72,6.72,0,0,1,1.32,2.34,9.66,9.66,0,0,1,.44,3,13.48,13.48,0,0,1-.64,4.09,11.77,11.77,0,0,1-1.91,3.69,10.12,10.12,0,0,1-3.15,2.68A9,9,0,0,1,275,416.28Zm2.52-14.6a3.2,3.2,0,0,0-2,.65,5.55,5.55,0,0,0-1.43,1.64,7.83,7.83,0,0,0-.87,2.17,9.42,9.42,0,0,0-.29,2.23,5.44,5.44,0,0,0,.55,2.68,2.1,2.1,0,0,0,2,.93,3.14,3.14,0,0,0,2-.65,5.51,5.51,0,0,0,1.43-1.63,8.15,8.15,0,0,0,.87-2.17,9.55,9.55,0,0,0,.29-2.23,5.41,5.41,0,0,0-.55-2.68A2.1,2.1,0,0,0,277.47,401.68Z"/><path class="cls-1" d="M293.94,398.67l1.28-.39c.47-.15,1-.28,1.57-.41s1.23-.23,1.94-.31a22.24,22.24,0,0,1,2.44-.12q4,0,5.53,2.32c1,1.54,1.17,3.66.51,6.34l-2.31,9.69h-5.08l2.24-9.48c.14-.59.25-1.17.33-1.73a4.15,4.15,0,0,0,0-1.46,1.72,1.72,0,0,0-.63-1,2.44,2.44,0,0,0-1.52-.4,10,10,0,0,0-2,.21l-3.3,13.88h-5.09Z"/><path class="cls-1" d="M313.59,408.76a12,12,0,0,1,.77-4.23,11.59,11.59,0,0,1,2.16-3.64,10.84,10.84,0,0,1,3.39-2.56,10.09,10.09,0,0,1,4.42-1,6.93,6.93,0,0,1,2.22.34,5.47,5.47,0,0,1,1.79,1,4.43,4.43,0,0,1,1.19,1.58,5,5,0,0,1,.43,2.14,5.88,5.88,0,0,1-.85,3.24,6.44,6.44,0,0,1-2.37,2.16,11.64,11.64,0,0,1-3.6,1.22,25.56,25.56,0,0,1-4.53.37,3,3,0,0,0,1,2,4.26,4.26,0,0,0,2.54.6,14.06,14.06,0,0,0,2.22-.19,11.44,11.44,0,0,0,2.11-.56l.38,4a16,16,0,0,1-2.44.68,16.29,16.29,0,0,1-3.22.31,9.38,9.38,0,0,1-3.57-.6,6.1,6.1,0,0,1-2.35-1.62,6.24,6.24,0,0,1-1.32-2.38A10.16,10.16,0,0,1,313.59,408.76Zm9.92-7.37a4.3,4.3,0,0,0-3.05,1.24,6,6,0,0,0-1.72,3.3,18.6,18.6,0,0,0,3.41-.37,6.91,6.91,0,0,0,2-.7,2.25,2.25,0,0,0,1-.88,2.13,2.13,0,0,0,.24-1C325.35,401.93,324.74,401.39,323.51,401.39Z"/><path class="cls-1" d="M339.89,412.16a4.16,4.16,0,0,0,2.39-.5,1.38,1.38,0,0,0,.64-1.08,1.56,1.56,0,0,0-.12-.64,1.42,1.42,0,0,0-.39-.51,3.88,3.88,0,0,0-.75-.5q-.48-.26-1.23-.6a15.91,15.91,0,0,1-1.6-.8,5.3,5.3,0,0,1-1.31-1,4.27,4.27,0,0,1-.89-1.36,4.6,4.6,0,0,1-.33-1.83,5.27,5.27,0,0,1,2-4.36,9.38,9.38,0,0,1,5.92-1.61,12.18,12.18,0,0,1,5.59,1.29l-1.73,3.79a10.43,10.43,0,0,0-1.85-.71,7.54,7.54,0,0,0-2.21-.35,7.19,7.19,0,0,0-.94.06,2.87,2.87,0,0,0-.85.22,1.49,1.49,0,0,0-.64.48,1.27,1.27,0,0,0-.23.82,1.14,1.14,0,0,0,.52,1,16.9,16.9,0,0,0,1.49.82c.89.43,1.63.83,2.22,1.19a5.83,5.83,0,0,1,1.41,1.16,3.84,3.84,0,0,1,.77,1.4,6.27,6.27,0,0,1,.24,1.84,5.33,5.33,0,0,1-.46,2.15,5,5,0,0,1-1.45,1.87,7.89,7.89,0,0,1-2.52,1.34,11.72,11.72,0,0,1-3.68.51,16,16,0,0,1-2.41-.17,12.69,12.69,0,0,1-1.89-.43,9.9,9.9,0,0,1-1.38-.52c-.38-.19-.67-.33-.87-.45l1.74-3.89a15.85,15.85,0,0,0,1.8.86A7.75,7.75,0,0,0,339.89,412.16Z"/><path class="cls-1" d="M372.94,416.23a6.67,6.67,0,0,1-2.92-.58,5.4,5.4,0,0,1-2-1.58,6.7,6.7,0,0,1-1.12-2.36,11,11,0,0,1-.36-2.88,11.53,11.53,0,0,1,.83-4.38,11.32,11.32,0,0,1,2.3-3.6,10.77,10.77,0,0,1,7.88-3.31,8.11,8.11,0,0,1,1.14.07,8.84,8.84,0,0,1,1.08.2l1.83-7.71,5.29-.82L382.42,408a11.15,11.15,0,0,0-.27,3.9,14.08,14.08,0,0,0,.78,3.5l-4.53.65c-.14-.28-.27-.54-.38-.79s-.23-.53-.34-.85a9.2,9.2,0,0,1-2.13,1.3A6.53,6.53,0,0,1,372.94,416.23Zm5.86-14.36-.36-.07-.31-.05-.39,0h-.61a4.48,4.48,0,0,0-2.22.57,5.41,5.41,0,0,0-1.75,1.52A7.57,7.57,0,0,0,372,406a7.76,7.76,0,0,0-.4,2.48,4.93,4.93,0,0,0,.56,2.57,2.16,2.16,0,0,0,2,.94,3.37,3.37,0,0,0,1.43-.31,5.44,5.44,0,0,0,1.37-1,17.62,17.62,0,0,1,.22-1.8c.1-.62.21-1.19.32-1.72Z"/><path class="cls-1" d="M390.09,408.72a12,12,0,0,1,.77-4.23,11.43,11.43,0,0,1,2.16-3.63,10.69,10.69,0,0,1,3.39-2.56,9.92,9.92,0,0,1,4.42-1,7.27,7.27,0,0,1,2.22.34,5.47,5.47,0,0,1,1.79,1,4.43,4.43,0,0,1,1.19,1.58,5,5,0,0,1,.43,2.14,5.88,5.88,0,0,1-.85,3.24,6.44,6.44,0,0,1-2.37,2.16,11.64,11.64,0,0,1-3.6,1.22,26.62,26.62,0,0,1-4.54.38,3,3,0,0,0,1,2,4.26,4.26,0,0,0,2.54.6,12.94,12.94,0,0,0,2.21-.19,11.55,11.55,0,0,0,2.12-.56l.38,4a16,16,0,0,1-2.44.68,16.32,16.32,0,0,1-3.23.31,9.33,9.33,0,0,1-3.56-.6,6,6,0,0,1-2.35-1.62,6.11,6.11,0,0,1-1.32-2.38A10.16,10.16,0,0,1,390.09,408.72Zm9.92-7.37a4.28,4.28,0,0,0-3.05,1.24,6,6,0,0,0-1.72,3.3,19.67,19.67,0,0,0,3.41-.36,7.83,7.83,0,0,0,2-.7,2.33,2.33,0,0,0,1-.89,2.12,2.12,0,0,0,.23-1C401.85,401.89,401.24,401.35,400,401.35Z"/><path class="cls-1" d="M428,412.11a4.06,4.06,0,0,0,2.39-.5,1.37,1.37,0,0,0,.65-1.07,1.6,1.6,0,0,0-.12-.65,1.51,1.51,0,0,0-.39-.51,4.65,4.65,0,0,0-.75-.49q-.48-.25-1.23-.6c-.57-.25-1.11-.52-1.61-.8a5.49,5.49,0,0,1-1.31-1,4.83,4.83,0,0,1-.89-1.37,4.78,4.78,0,0,1-.32-1.82,5.26,5.26,0,0,1,2-4.37,9.35,9.35,0,0,1,5.91-1.6,12.13,12.13,0,0,1,3.28.4,12.29,12.29,0,0,1,2.32.89l-1.74,3.79a11,11,0,0,0-1.84-.72,7.53,7.53,0,0,0-2.22-.34c-.32,0-.63,0-.94.05a3.21,3.21,0,0,0-.85.22,1.7,1.7,0,0,0-.63.48,1.31,1.31,0,0,0-.24.82,1.12,1.12,0,0,0,.53,1,16.49,16.49,0,0,0,1.48.82c.89.43,1.63.83,2.22,1.19a6.36,6.36,0,0,1,1.42,1.16,3.92,3.92,0,0,1,.77,1.4,6.7,6.7,0,0,1,.23,1.84,5.25,5.25,0,0,1-.45,2.15,5.08,5.08,0,0,1-1.45,1.88,7.84,7.84,0,0,1-2.53,1.33,11.72,11.72,0,0,1-3.68.51,14.56,14.56,0,0,1-2.4-.17,13.22,13.22,0,0,1-1.9-.42,10.87,10.87,0,0,1-1.38-.53l-.87-.44,1.74-3.89a15.61,15.61,0,0,0,1.81.85A7.66,7.66,0,0,0,428,412.11Z"/><path class="cls-1" d="M443.06,408.69a12,12,0,0,1,.76-4.23,11.5,11.5,0,0,1,2.17-3.63,10.69,10.69,0,0,1,3.39-2.56,10,10,0,0,1,4.41-1,7.17,7.17,0,0,1,2.22.34,5.47,5.47,0,0,1,1.79,1,4.61,4.61,0,0,1,1.2,1.59,5.12,5.12,0,0,1,.42,2.13,5.88,5.88,0,0,1-.85,3.24,6.31,6.31,0,0,1-2.37,2.17,11.66,11.66,0,0,1-3.59,1.21,25.64,25.64,0,0,1-4.54.38,3.07,3.07,0,0,0,1,2,4.36,4.36,0,0,0,2.54.59,13,13,0,0,0,2.22-.19,10.7,10.7,0,0,0,2.11-.56l.38,4a14.65,14.65,0,0,1-2.44.68,15.5,15.5,0,0,1-3.22.31,9.5,9.5,0,0,1-3.56-.59,6,6,0,0,1-3.67-4A10.16,10.16,0,0,1,443.06,408.69Zm9.92-7.37a4.29,4.29,0,0,0-3.05,1.25,6,6,0,0,0-1.72,3.29,19.9,19.9,0,0,0,3.41-.36,7.47,7.47,0,0,0,2-.7,2.23,2.23,0,0,0,.95-.89,2.12,2.12,0,0,0,.24-1C454.82,401.87,454.21,401.32,453,401.32Z"/><path class="cls-1" d="M477.23,402.13l-1.35-.33a9.56,9.56,0,0,0-2-.15,7,7,0,0,0-1.06.09,8.59,8.59,0,0,0-.95.18l-3.3,13.78h-5.09l4.09-17c1-.32,2.07-.62,3.29-.91a18.3,18.3,0,0,1,4.11-.42,13.27,13.27,0,0,1,1.89.15,7.62,7.62,0,0,1,1.83.49Z"/><path class="cls-1" d="M486.58,415.7c-.59-2.28-1.13-4.93-1.61-8a93.94,93.94,0,0,1-1-10h5.25c0,.89.06,1.86.1,2.92s.11,2.12.18,3.19.14,2.11.24,3.12.19,1.93.3,2.75c.5-.69,1.07-1.53,1.69-2.53s1.23-2.05,1.82-3.14,1.14-2.19,1.64-3.29a23.74,23.74,0,0,0,1.16-3h5.39a45.81,45.81,0,0,1-2.2,5q-1.31,2.55-2.81,4.95t-3.05,4.46c-1,1.39-2,2.58-2.88,3.55Z"/><path class="cls-1" d="M509.19,415.68h-5.05l4.26-17.94h5.08Zm2.45-20.12a3.11,3.11,0,0,1-1.91-.63,2.24,2.24,0,0,1-.86-1.93,3.23,3.23,0,0,1,.29-1.34,3.46,3.46,0,0,1,.77-1.1,3.82,3.82,0,0,1,1.11-.73,3.38,3.38,0,0,1,1.34-.27,3.13,3.13,0,0,1,1.91.63,2.23,2.23,0,0,1,.86,1.92,3.24,3.24,0,0,1-.29,1.35,3.58,3.58,0,0,1-.77,1.09,3.85,3.85,0,0,1-1.11.74A3.38,3.38,0,0,1,511.64,395.56Z"/><path class="cls-1" d="M518.22,408.52a12.62,12.62,0,0,1,.75-4.37,10.79,10.79,0,0,1,2.15-3.58,9.9,9.9,0,0,1,3.39-2.42,10.69,10.69,0,0,1,4.45-.89,11.55,11.55,0,0,1,2.75.29,10.73,10.73,0,0,1,2.2.76l-1.74,4c-.46-.18-.93-.35-1.42-.5a6.47,6.47,0,0,0-1.79-.22,5,5,0,0,0-4,1.73,7,7,0,0,0-1.46,4.69,4.79,4.79,0,0,0,.75,2.81,3.14,3.14,0,0,0,2.76,1.08,8.54,8.54,0,0,0,1.91-.21,9.94,9.94,0,0,0,1.64-.51l.38,4.06a17.33,17.33,0,0,1-2.1.66,11.63,11.63,0,0,1-2.78.29,9.23,9.23,0,0,1-3.58-.61,6.88,6.88,0,0,1-2.43-1.65,6.4,6.4,0,0,1-1.38-2.44A10.13,10.13,0,0,1,518.22,408.52Z"/><path class="cls-1" d="M542,415.67h-5l4.25-17.94h5.08Zm2.44-20.13a3.13,3.13,0,0,1-1.91-.63,2.23,2.23,0,0,1-.85-1.92,3.09,3.09,0,0,1,.29-1.35,3.39,3.39,0,0,1,.76-1.09,3.85,3.85,0,0,1,1.11-.74,3.39,3.39,0,0,1,1.35-.27,3.15,3.15,0,0,1,1.91.63,2.23,2.23,0,0,1,.85,1.93,3.23,3.23,0,0,1-.29,1.34,3.6,3.6,0,0,1-.76,1.1,3.82,3.82,0,0,1-1.11.73A3.39,3.39,0,0,1,544.48,395.54Z"/><path class="cls-1" d="M558.17,416.14a8.12,8.12,0,0,1-3.14-.55,5.73,5.73,0,0,1-2.2-1.53,6.72,6.72,0,0,1-1.32-2.34,9.66,9.66,0,0,1-.44-3,13.2,13.2,0,0,1,.66-4.09,11.68,11.68,0,0,1,2-3.69,10.55,10.55,0,0,1,3.17-2.68,8.74,8.74,0,0,1,4.3-1,8.36,8.36,0,0,1,3.12.54,5.86,5.86,0,0,1,2.22,1.54,6.58,6.58,0,0,1,1.31,2.33,9.72,9.72,0,0,1,.45,3,13.54,13.54,0,0,1-.65,4.09,11.83,11.83,0,0,1-1.91,3.68,9.86,9.86,0,0,1-3.15,2.68A8.87,8.87,0,0,1,558.17,416.14Zm2.51-14.6a3.14,3.14,0,0,0-2,.65,5.66,5.66,0,0,0-1.43,1.63,8.64,8.64,0,0,0-.87,2.17,9.52,9.52,0,0,0-.28,2.23,5.4,5.4,0,0,0,.54,2.68,2.1,2.1,0,0,0,2,.94,3.2,3.2,0,0,0,2-.65,5.55,5.55,0,0,0,1.43-1.64,7.89,7.89,0,0,0,.87-2.16,9.57,9.57,0,0,0,.29-2.24,5.44,5.44,0,0,0-.55-2.68A2.09,2.09,0,0,0,560.68,401.54Z"/><path class="cls-1" d="M578.87,412a4.11,4.11,0,0,0,2.38-.49,1.39,1.39,0,0,0,.65-1.08,1.64,1.64,0,0,0-.12-.65,1.51,1.51,0,0,0-.39-.51,3.89,3.89,0,0,0-.75-.49q-.48-.26-1.23-.6a15.91,15.91,0,0,1-1.6-.8,5.54,5.54,0,0,1-1.32-1,4.54,4.54,0,0,1-.88-1.36,4.64,4.64,0,0,1-.33-1.83,5.23,5.23,0,0,1,2-4.36,9.35,9.35,0,0,1,5.91-1.61,12.18,12.18,0,0,1,5.6,1.29l-1.74,3.79a11,11,0,0,0-1.84-.72,7.88,7.88,0,0,0-2.22-.34,7.3,7.3,0,0,0-.94.06,2.66,2.66,0,0,0-.85.22,1.52,1.52,0,0,0-.63.48,1.26,1.26,0,0,0-.24.81,1.15,1.15,0,0,0,.53,1,15.86,15.86,0,0,0,1.49.81c.88.44,1.62.83,2.21,1.2A5.89,5.89,0,0,1,586,407a3.88,3.88,0,0,1,.77,1.39,6.39,6.39,0,0,1,.24,1.85,5.42,5.42,0,0,1-.46,2.14,5.08,5.08,0,0,1-1.45,1.88,7.69,7.69,0,0,1-2.52,1.33,11.81,11.81,0,0,1-3.69.52,15.83,15.83,0,0,1-2.4-.17,14.62,14.62,0,0,1-1.9-.43,10.87,10.87,0,0,1-1.38-.53l-.87-.44,1.74-3.89a15.61,15.61,0,0,0,1.81.85A7.75,7.75,0,0,0,578.87,412Z"/></g></g></svg>