<svg xmlns="http://www.w3.org/2000/svg" viewBox="0 0 60.5 60.5"><defs><style>.cls-1{fill:none;stroke:#0096ff;stroke-linecap:round;stroke-linejoin:round;stroke-width:1.5px;}</style></defs><title>Relleno de nivelesiconos</title><g id="Capa_2" data-name="Capa 2"><g id="Capa_2-2" data-name="Capa 2"><line class="cls-1" x1="39.75" y1="23.75" x2="35.75" y2="23.75"/><line class="cls-1" x1="39.75" y1="29.75" x2="35.75" y2="29.75"/><line class="cls-1" x1="39.75" y1="6.75" x2="35.75" y2="6.75"/><line class="cls-1" x1="39.75" y1="12.75" x2="35.75" y2="12.75"/><path class="cls-1" d="M53.63,44l-1.51-1.55a2.43,2.43,0,0,0-3.5,0L45.16,46a2.43,2.43,0,0,1-3.5,0l-3.45-3.56a2.43,2.43,0,0,0-3.5,0L31.25,46a2.43,2.43,0,0,1-3.5,0l-3.46-3.56a2.43,2.43,0,0,0-3.5,0L17.33,46a2.43,2.43,0,0,1-3.5,0l-3.46-3.56a2.43,2.43,0,0,0-3.5,0"/><path class="cls-1" d="M30.75.75h5a4,4,0,0,1,4,4v32"/><path class="cls-1" d="M15,59.75H5.19A4.44,4.44,0,0,1,.75,55.31V38.75"/><line class="cls-1" x1="26.42" y1="59.75" x2="20.75" y2="59.75"/><path class="cls-1" d="M59.75,38.75V55.31a4.44,4.44,0,0,1-4.44,4.44H32.08"/><path class="cls-1" d="M39.75,27.75v-6a4,4,0,0,0-4-4h-5"/></g></g></svg>