<svg xmlns="http://www.w3.org/2000/svg" width="28.046" height="28.046" viewBox="0 0 28.046 28.046">
  <defs>
    <style>
      .cls-1 {
        fill: #fff;
        stroke: #707070;
      }

      .cls-2, .cls-5 {
        fill: #1f1f1f;
      }

      .cls-2 {
        stroke-linecap: round;
        stroke-linejoin: round;
      }

      .cls-3, .cls-5 {
        stroke: none;
      }

      .cls-4 {
        fill: none;
      }
    </style>
  </defs>
  <g id="Grupo_121" data-name="Grupo 121" transform="translate(-7646.454 -4418.667)">
    <g id="Elipse_9" data-name="Elipse 9" class="cls-1" transform="translate(7646.454 4418.667)">
      <circle class="cls-3" cx="14.023" cy="14.023" r="14.023"/>
      <circle class="cls-4" cx="14.023" cy="14.023" r="13.523"/>
    </g>
    <g id="Sustracción_1" data-name="Sustracción 1" class="cls-2" transform="translate(7655.592 4424.969)">
      <path class="cls-3" d="M 7.405004024505615 15.24161148071289 C 6.575891494750977 15.18954181671143 5.770994663238525 15.0001916885376 5.006389617919922 14.67678833007813 C 4.127859592437744 14.30520820617676 3.338769674301147 13.77313899993896 2.661019802093506 13.09536838531494 C 1.983259797096252 12.4176082611084 1.451199769973755 11.62849903106689 1.079609751701355 10.74994850158691 C 0.6950097680091858 9.840628623962402 0.4999997913837433 8.874408721923828 0.4999997913837433 7.878118515014648 C 0.4999997913837433 6.881878852844238 0.6950097680091858 5.915688514709473 1.079609751701355 5.006388664245605 C 1.451199769973755 4.127858638763428 1.983259797096252 3.338758707046509 2.661009788513184 2.66101861000061 C 3.338759899139404 1.983258605003357 4.127859592437744 1.451198577880859 5.006389617919922 1.079608678817749 C 5.770994663238525 0.756205677986145 6.575854301452637 0.5668575763702393 7.404966831207275 0.5147883296012878 C 4.755720138549805 1.947779774665833 3.040719747543335 4.729377746582031 3.040719747543335 7.878118515014648 C 3.040719747543335 11.02692317962646 4.755757331848145 13.8085994720459 7.405004024505615 15.24161148071289 Z"/>
      <path class="cls-5" d="M 5.167943954467773 14.20213317871094 C 3.526712894439697 12.58220863342285 2.540719747543335 10.33563423156738 2.540719747543335 7.878118515014648 C 2.540719747543335 5.420655727386475 3.526652097702026 3.174184560775757 5.167882919311523 1.554285764694214 C 4.362278938293457 1.899971723556519 3.637996196746826 2.391132116317749 3.014559745788574 3.014568567276001 C 2.382569789886475 3.646558523178101 1.886489748954773 4.382228851318359 1.540109753608704 5.20115852355957 C 1.181719779968262 6.048498630523682 0.9999997615814209 6.949158668518066 0.9999997615814209 7.878118515014648 C 0.9999997615814209 8.80712890625 1.181719779968262 9.707818984985352 1.540119767189026 10.55517864227295 C 1.886499762535095 11.3741283416748 2.382569789886475 12.10981845855713 3.014579772949219 12.74181842803955 C 3.638006448745728 13.36526489257813 4.362339496612549 13.85644721984863 5.167943954467773 14.20213317871094 M 7.878119945526123 15.75639820098877 C 6.814579963684082 15.75639820098877 5.782859802246094 15.54809856414795 4.811609745025635 15.13728904724121 C 3.873489856719971 14.74049854278564 3.030969858169556 14.17244815826416 2.307459831237793 13.44891834259033 C 1.583939790725708 12.72539901733398 1.015899777412415 11.88285827636719 0.6191098093986511 10.94471836090088 C 0.2082997858524323 9.973438262939453 -2.148437516780177e-07 8.941688537597656 -2.148437516780177e-07 7.878118515014648 C -2.148437516780177e-07 6.81458854675293 0.2082997858524323 5.782868385314941 0.6191098093986511 4.811608791351318 C 1.015899777412415 3.873488664627075 1.583939790725708 3.03096866607666 2.307459831237793 2.307458639144897 C 3.030969858169556 1.583938598632813 3.873489856719971 1.015898585319519 4.811609745025635 0.6191086173057556 C 5.782859802246094 0.2082986235618591 6.814589977264404 -1.376342765979643e-06 7.878119945526123 -1.376342765979643e-06 C 8.475679397583008 -1.376342765979643e-06 9.07133960723877 0.06719862669706345 9.6485595703125 0.1997186243534088 C 6.052359580993652 1.025418639183044 3.540719747543335 4.182748794555664 3.540719747543335 7.878118515014648 C 3.540719747543335 11.57343864440918 6.052359580993652 14.7309684753418 9.6485595703125 15.55666828155518 C 9.070849418640137 15.68931865692139 8.475190162658691 15.75639820098877 7.878119945526123 15.75639820098877 Z"/>
    </g>
  </g>
</svg>
