<svg xmlns="http://www.w3.org/2000/svg" viewBox="0 0 79.75 47"><defs><style>.cls-1{fill:none;stroke:#0096ff;stroke-linejoin:round;stroke-width:1.5px;}</style></defs><title>Pago con tarjetaiconos</title><g id="Capa_2" data-name="Capa 2"><g id="Capa_4" data-name="Capa 4"><rect class="cls-1" x="26.99" y="18.53" width="42.68" height="27.72" rx="1.89" ry="1.89"/><line class="cls-1" x1="26.99" y1="24.63" x2="39.19" y2="24.63"/><line class="cls-1" x1="27.75" y1="37.61" x2="40.75" y2="37.61"/><line class="cls-1" x1="44.23" y1="24.63" x2="69.4" y2="24.63"/><line class="cls-1" x1="27.27" y1="30.73" x2="69.4" y2="30.73"/><line class="cls-1" x1="15.75" y1="46.25" x2="79.75" y2="46.25"/><line class="cls-1" x1="9.75" y1="46.25" y2="46.25"/><path class="cls-1" d="M23.36,45.84a1.93,1.93,0,0,1-.27-.3L9.47,25.87A1.91,1.91,0,0,1,10,23.23l32-22.14a1.9,1.9,0,0,1,2.64.47L53.5,14.47"/><line class="cls-1" x1="11.86" y1="29.33" x2="18.4" y2="24.8"/><line class="cls-1" x1="35.56" y1="12.91" x2="46.72" y2="5.18"/></g></g></svg>